<svg width="61" height="53" viewBox="0 0 61 53" fill="none" xmlns="http://www.w3.org/2000/svg">
<path d="M0 52.9375V47.0555C1.91583 47.0555 3.63 46.7002 5.1425 45.9894C6.655 45.2787 8.29354 44.2861 10.0581 43.0117C11.5706 44.2371 13.2218 45.2052 15.0116 45.9159C16.8014 46.6267 18.5281 46.982 20.1919 46.982C21.8556 46.982 23.595 46.6389 25.41 45.9527C27.225 45.2665 28.8635 44.2861 30.3256 43.0117C31.939 44.3842 33.6027 45.389 35.3169 46.0262C37.031 46.6634 38.7452 46.982 40.4594 46.982C42.1231 46.982 43.7491 46.6634 45.3372 46.0262C46.9253 45.389 48.6773 44.3842 50.5931 43.0117C52.5594 44.4822 54.2987 45.5238 55.8112 46.1365C57.3237 46.7492 58.8867 47.0555 60.5 47.0555V52.9375C58.7354 52.9375 57.0338 52.7047 55.3953 52.239C53.7568 51.7734 52.156 51.0994 50.5931 50.2171C48.9798 51.1974 47.3034 51.8959 45.5641 52.3125C43.8247 52.7292 42.1231 52.9375 40.4594 52.9375C38.7956 52.9375 37.0941 52.7292 35.3547 52.3125C33.6153 51.8959 31.939 51.1974 30.3256 50.2171C28.8635 51.1484 27.2502 51.8346 25.4856 52.2758C23.721 52.7169 21.9565 52.9375 20.1919 52.9375C18.4777 52.9375 16.7635 52.7169 15.0494 52.2758C13.3352 51.8346 11.6715 51.1484 10.0581 50.2171C8.49521 51.0994 6.86927 51.7734 5.18031 52.239C3.49135 52.7047 1.76458 52.9375 0 52.9375ZM0 39.7031V33.8212C0 29.0666 0.945312 24.6306 2.83594 20.5133C4.72656 16.3959 7.31042 12.8177 10.5875 9.77873C13.8646 6.73973 17.7089 4.35019 22.1203 2.61011C26.5318 0.870037 31.2583 0 36.3 0C37.9637 0 39.6149 0.0857784 41.2534 0.257335C42.892 0.428892 44.3667 0.661719 45.6775 0.955816C44.6187 2.52433 43.7995 4.17863 43.2197 5.91871C42.6399 7.65878 42.35 9.28857 42.35 10.8081C42.35 13.504 43.3331 15.8077 45.2994 17.7194C47.2656 19.631 49.6352 20.5868 52.4081 20.5868H60.5V26.4687H52.4081C47.921 26.4687 44.1146 24.9492 40.9887 21.9102C37.8629 18.8712 36.3 15.1705 36.3 10.8081C36.3 10.1218 36.3504 9.39886 36.4512 8.6391C36.5521 7.87935 36.7033 7.13186 36.905 6.39661C33.1742 7.2789 30.124 9.15378 27.7544 12.0212C25.3848 14.8887 24.2 18.234 24.2 22.0573C24.2 23.8219 24.4899 25.5007 25.0697 27.0937C25.6495 28.6867 26.4687 30.194 27.5275 31.6154C27.9308 31.3704 28.3594 31.0885 28.8131 30.7699C29.2669 30.4513 29.7458 30.1205 30.25 29.7773C31.7121 31.0518 33.401 32.0321 35.3169 32.7183C37.2327 33.4045 38.9469 33.7477 40.4594 33.7477C41.9719 33.7477 43.6608 33.3923 45.5262 32.6815C47.3917 31.9708 49.0806 31.0027 50.5931 29.7773C52.2065 30.9537 53.8072 31.9218 55.3953 32.6815C56.9834 33.4413 58.685 33.8212 60.5 33.8212V39.7031C58.7354 39.7031 57.0338 39.4703 55.3953 39.0046C53.7568 38.539 52.156 37.865 50.5931 36.9827C48.9798 37.963 47.3412 38.6615 45.6775 39.0782C44.0137 39.4948 42.2744 39.7031 40.4594 39.7031C38.6444 39.7031 36.8294 39.458 35.0144 38.9679C33.1994 38.4777 31.6365 37.816 30.3256 36.9827C28.7627 37.914 27.1242 38.588 25.41 39.0046C23.6958 39.4213 21.9565 39.6541 20.1919 39.7031C18.4273 39.7521 16.6879 39.5316 14.9737 39.0414C13.2596 38.5512 11.621 37.865 10.0581 36.9827C8.49521 37.865 6.86927 38.539 5.18031 39.0046C3.49135 39.4703 1.76458 39.7031 0 39.7031ZM20.0406 33.7477C20.2927 33.7477 20.5448 33.7477 20.7969 33.7477C21.049 33.7477 21.301 33.7231 21.5531 33.6741C20.444 31.9586 19.5995 30.1205 19.0197 28.1598C18.4399 26.1992 18.15 24.165 18.15 22.0573C18.15 18.087 19.0827 14.4965 20.9481 11.286C22.8135 8.07542 25.41 5.4408 28.7375 3.38212V6.61719C25.6117 7.40145 22.7253 8.59009 20.0784 10.1831C17.4316 11.7761 15.1124 13.7 13.1209 15.9548C11.1295 18.2095 9.52875 20.7216 8.31875 23.491C7.10875 26.2604 6.37771 29.2137 6.12562 32.3507C6.88187 31.9095 7.53729 31.5174 8.09187 31.1743C8.64646 30.8312 9.30187 30.3655 10.0581 29.7773C11.9235 31.1008 13.6125 32.0934 15.125 32.7551C16.6375 33.4168 18.276 33.7477 20.0406 33.7477Z" fill="url(#paint0_linear_30_207)"/>
<defs>
<linearGradient id="paint0_linear_30_207" x1="27.7274" y1="-24.2615" x2="80.1965" y2="35.7031" gradientUnits="userSpaceOnUse">
<stop stop-color="#A33E00"/>
<stop offset="1" stop-color="#FF6600"/>
</linearGradient>
</defs>
</svg>
